<?xml version="1.0" encoding="UTF-8" standalone="no"?>
<!-- Created with Inkscape (http://www.inkscape.org/) -->

<svg
   version="1.1"
   id="svg2"
   width="40"
   height="20"
   viewBox="0 0 135 20 "
   sodipodi:docname="squarespace-seeklogo.com.eps"
   xmlns:inkscape="http://www.inkscape.org/namespaces/inkscape"
   xmlns:sodipodi="http://sodipodi.sourceforge.net/DTD/sodipodi-0.dtd"
   xmlns="http://www.w3.org/2000/svg"
   xmlns:svg="http://www.w3.org/2000/svg">
  <defs
     id="defs6" />
  <sodipodi:namedview
     id="namedview4"
     pagecolor="#ffffff"
     bordercolor="#000000"
     borderopacity="0.25"
     inkscape:showpageshadow="2"
     inkscape:pageopacity="0.0"
     inkscape:pagecheckerboard="0"
     inkscape:deskcolor="#d1d1d1" />
  <g
     id="g8"
     inkscape:groupmode="layer"
     inkscape:label="ink_ext_XXXXXX"
     transform="matrix(1.3333333,0,0,-1.3333333,0,18.546667)">
    <g
       id="g10"
       transform="scale(0.1)">
      <path
         d="m 147.164,75.5391 c -3.297,3.2929 -8.644,3.2929 -11.937,0 L 81.5078,21.8164 c -6.5898,-6.5898 -17.2812,-6.5898 -23.8711,0 -3.2969,3.3008 -8.6445,3.3008 -11.9375,0 -3.2969,-3.2891 -3.2969,-8.6406 0,-11.93359 13.1836,-13.18359 34.5664,-13.18359 47.75,0 L 147.164,63.5977 c 3.297,3.2968 3.297,8.6445 0,11.9414 z M 117.324,93.4414 63.6016,39.7266 c -3.293,-3.3008 -3.293,-8.6407 0,-11.9336 3.3047,-3.3008 8.6445,-3.3008 11.9414,0 l 53.715,53.7109 c 6.594,6.5977 17.285,6.5977 23.871,0 6.594,-6.5898 6.594,-17.2734 0,-23.875 L 100.449,4.95313 c 6.59,-6.60157 17.281,-6.60157 23.871,0 l 40.754,40.74217 c 13.184,13.1914 13.184,34.5625 0,47.7461 -13.187,13.1836 -34.566,13.1836 -47.75,0 z m -5.972,5.9688 c 3.296,3.2968 3.296,8.6408 0,11.9378 -3.293,3.297 -8.641,3.297 -11.9379,0 L 45.6992,57.6289 c -6.5937,-6.5937 -17.2812,-6.5937 -23.8711,0 -6.5976,6.6016 -6.5976,17.2852 0,23.8789 l 52.6836,52.6832 c -6.5937,6.59 -17.2851,6.59 -23.875,0 L 9.88672,93.4414 c -13.1836,-13.1836 -13.1836,-34.5547 0,-47.7461 13.19138,-13.1836 34.56248,-13.1836 47.74998,0 z M 27.793,63.5977 c 3.2968,-3.293 8.6406,-3.293 11.9336,0 l 53.7226,53.7183 c 6.5898,6.594 17.2778,6.594 23.8708,0 3.301,-3.296 8.641,-3.296 11.938,0 3.297,3.301 3.297,8.641 0,11.938 -13.188,13.187 -34.5588,13.187 -47.7502,0 L 27.793,75.5391 c -3.2969,-3.2969 -3.2969,-8.6446 0,-11.9414 z m 510.906,7.9257 v 28.7896 h 21.914 c 11.45,0 18.137,-5.27 18.137,-13.9888 V 86.125 c 0,-9.1289 -7.598,-14.6016 -18.254,-14.6016 z m 48.164,14.9024 v 0.1992 c 0,5.5781 -2.027,10.5469 -5.476,13.996 -4.453,4.457 -11.453,7.094 -20.164,7.094 h -30.52 V 36.75 h 7.996 v 27.5703 h 20.278 L 579.563,36.75 h 9.832 l -21.797,28.9883 c 11.152,2.0312 19.265,8.9297 19.265,20.6875 z M 811.121,62.707 827.344,98.8984 843.469,62.707 Z m 12.57,45.516 -32.343,-71.473 h 8.215 l 8.417,18.7578 h 38.629 L 854.922,36.75 h 8.613 l -32.344,71.473 z M 464.293,62.707 480.512,98.8984 496.637,62.707 Z m 12.566,45.516 -32.332,-71.473 h 8.207 l 8.418,18.7578 h 38.629 L 508.086,36.75 h 8.625 l -32.348,71.473 z M 697.363,76.0859 c -15.605,3.3399 -19.258,7.0977 -19.258,13.7891 v 0.1992 c 0,6.3867 5.879,11.4528 15.11,11.4528 7.293,0 13.894,-2.3278 20.476,-7.6989 l 4.668,6.1839 c -7.199,5.773 -14.597,8.718 -24.941,8.718 -13.484,0 -23.32,-8.21 -23.32,-19.3628 v -0.207 c 0,-11.6602 7.507,-16.9297 23.828,-20.4766 14.902,-3.1406 18.445,-6.8945 18.445,-13.4766 V 55 c 0,-7 -6.285,-12.0586 -15.808,-12.0586 -9.833,0 -16.922,3.3399 -24.336,10.0195 l -4.961,-5.8711 c 8.515,-7.6054 17.734,-11.3554 28.996,-11.3554 14.09,0 24.226,7.9101 24.226,20.0781 v 0.1953 c 0,10.8516 -7.297,16.6289 -23.125,20.0781 z m -85.359,-7.1992 h 38.726 v 7.3008 h -38.726 v 24.2265 h 43.301 v 7.301 H 604.004 V 36.75 h 51.797 v 7.3047 h -43.797 z m -361.43,7.1992 c -15.609,3.3399 -19.258,7.0977 -19.258,13.7891 v 0.1992 c 0,6.3867 5.887,11.4528 15.106,11.4528 7.301,0 13.894,-2.3278 20.476,-7.6989 l 4.668,6.1839 c -7.203,5.773 -14.597,8.718 -24.941,8.718 -13.484,0 -23.32,-8.21 -23.32,-19.3628 v -0.207 c 0,-11.6602 7.5,-16.9297 23.828,-20.4766 14.902,-3.1406 18.453,-6.8945 18.453,-13.4766 V 55 c 0,-7 -6.293,-12.0586 -15.82,-12.0586 -9.828,0 -16.922,3.3399 -24.332,10.0195 l -4.961,-5.8711 c 8.511,-7.6054 17.734,-11.3554 28.992,-11.3554 14.09,0 24.226,7.9101 24.226,20.0781 v 0.1953 c 0,10.8516 -7.296,16.6289 -23.117,20.0781 z m 531.25,8.6172 c 0,-9.3281 -7.715,-15.6172 -19.469,-15.6172 h -17.542 v 31.2271 h 17.953 c 11.453,0 19.058,-5.27 19.058,-15.4107 z m -18.465,23.0119 h -26.55 V 36.75 h 8.004 v 25.0391 h 17.238 c 15.105,0 27.883,7.9101 27.883,23.2148 v 0.2031 c 0,13.9922 -10.547,22.508 -26.575,22.508 z M 956.191,44.0547 v 24.832 h 38.743 v 7.3008 h -38.743 v 24.2265 h 43.301 v 7.301 H 948.184 V 36.75 H 1000 v 7.3047 z m -50.175,-1.1133 c -15.606,0 -27.469,12.8711 -27.469,29.2891 v 0.2031 c 0,16.3203 11.746,29.0934 27.469,29.0934 9.629,0 16.32,-4.0504 22.304,-9.7301 l 5.481,5.8789 c -7.102,6.6952 -14.809,11.2542 -27.688,11.2542 -20.879,0 -35.886,-16.6253 -35.886,-36.6995 v -0.2032 c 0,-20.375 15.105,-36.5 35.586,-36.5 12.878,0 20.984,4.9727 28.386,12.4727 l -5.273,5.1758 C 922.129,46.6797 915.742,42.9414 906.016,42.9414 Z M 426.172,66.4492 c 0,-15.5117 -8.313,-23.4101 -21.387,-23.4101 -13.594,0 -21.699,8.6132 -21.699,23.9179 v 40.758 h -8.008 V 66.4492 c 0,-20.0703 11.957,-30.8125 29.5,-30.8125 17.742,0 29.606,10.7422 29.606,31.4258 v 40.6525 h -8.012 z m -81.406,-12.7656 -13.082,11.8594 -5.371,-5.9922 13.183,-11.25 c -4.359,-3.3399 -10.043,-5.3594 -16.328,-5.3594 -16.215,0 -27.977,13.1719 -27.977,29.2891 v 0.2031 c 0,16.1172 11.551,29.0934 27.782,29.0934 16.215,0 27.98,-13.1754 27.98,-29.2965 v -0.2032 c 0,-6.9921 -2.336,-13.375 -6.187,-18.3437 z m 14.496,18.5469 v 0.2031 c 0,19.5703 -14.496,36.4964 -36.094,36.4964 -21.59,0 -36.297,-17.1331 -36.297,-36.6995 v -0.2032 c 0,-19.5664 14.508,-36.5 36.102,-36.5 8.812,0 16.422,2.8438 22.398,7.6094 l 9.332,-8.5078 5.473,5.9766 -9.43,7.8047 c 5.477,6.4843 8.516,14.9023 8.516,23.8203"
         style="fill:#acacb4;fill-opacity:1;fill-rule:nonzero;stroke:none"
         id="path12" />
    </g>
  </g>
</svg>
